HIERARCHY
ROOT hip
{
	OFFSET 0.000000 0.000000 0.000000 
	CHANNELS 6 Xposition Yposition Zposition Xrotation Zrotation Yrotation
	JOINT abdomen
	{
		OFFSET 0.000000 3.402643 0.000000 
		CHANNELS 3 Xrotation Zrotation Yrotation
		JOINT chest
		{
			OFFSET 0.000000 8.438565 -0.680529 
			CHANNELS 3 Xrotation Zrotation Yrotation
			JOINT neck
			{
				OFFSET 0.000000 10.207942 -0.272212 
				CHANNELS 3 Xrotation Zrotation Yrotation
				JOINT head
				{
					OFFSET 0.000000 3.130431 0.000000 
					CHANNELS 3 Xrotation Zrotation Yrotation
					End Site
					{
						OFFSET 0.000000 3.130435 0.000000 
					}
				}
			}
			JOINT lCollar
			{
				OFFSET 3.470700 6.669187 -0.816635 
				CHANNELS 3 Yrotation Zrotation Xrotation
				JOINT lShldr
				{
					OFFSET 3.198488 0.000000 0.000000 
					CHANNELS 3 Zrotation Yrotation Xrotation
					JOINT lForeArm
					{
						OFFSET 10.139888 0.000000 0.000000 
						CHANNELS 3 Yrotation Zrotation Xrotation
						JOINT lHand
						{
							OFFSET 8.370511 0.000000 0.000000 
							CHANNELS 3 Zrotation Yrotation Xrotation
							End Site
							{
								OFFSET 4.083176 0.000000 0.000000 
							}
						}
					}
				}
			}
			JOINT rCollar
			{
				OFFSET -3.470700 6.669187 -0.816635 
				CHANNELS 3 Yrotation Zrotation Xrotation
				JOINT rShldr
				{
					OFFSET -3.198488 0.000000 0.000000 
					CHANNELS 3 Zrotation Yrotation Xrotation
					JOINT rForeArm
					{
						OFFSET -10.139888 0.000000 0.000000 
						CHANNELS 3 Yrotation Zrotation Xrotation
						JOINT rHand
						{
							OFFSET -8.370511 0.000000 0.000000 
							CHANNELS 3 Zrotation Yrotation Xrotation
							End Site
							{
								OFFSET -4.083176 0.000000 0.000000 
							}
						}
					}
				}
			}
		}
	}
	JOINT lThigh
	{
		OFFSET 5.308129 -1.633274 1.361059 
		CHANNELS 3 Xrotation Zrotation Yrotation
		JOINT lShin
		{
			OFFSET -2.041588 -20.007561 0.000000 
			CHANNELS 3 Xrotation Zrotation Yrotation
			JOINT lFoot
			{
				OFFSET 0.000000 -19.190928 -1.224953 
				CHANNELS 3 Xrotation Yrotation Zrotation
				End Site
				{
					OFFSET 0.000000 -2.449906 4.627600 
				}
			}
		}
	}
	JOINT rThigh
	{
		OFFSET -5.308129 -1.633274 1.361059 
		CHANNELS 3 Xrotation Zrotation Yrotation
		JOINT rShin
		{
			OFFSET 2.041588 -20.007561 0.000000 
			CHANNELS 3 Xrotation Zrotation Yrotation
			JOINT rFoot
			{
				OFFSET 0.000000 -19.190928 -1.224953 
				CHANNELS 3 Xrotation Yrotation Zrotation
				End Site
				{
					OFFSET 0.000000 -2.449906 4.627600 
				}
			}
		}
	}
}
MOTION
Frames: 18
Frame Time: 0.011111
36.593353 27.806120 33.050854 -15.038972 10.017964 20.114695 64.001778 3.112229 -18.224968 -5.921061 7.903076 -4.797095 7.409121 -11.199574 -25.490463 -7.913169 45.985142 -56.356808 1.452834 -1.250150 0.768655 -14.843106 -34.639606 -4.010068 -89.274475 2.187567 27.446821 6.992188 16.005859 -33.249260 -6.408587 0.914528 1.823621 68.107498 15.141791 -12.063663 95.746170 -6.453435 36.809246 -7.001954 -15.996095 31.611328 -81.122147 23.915203 -18.738483 89.839928 -2.270072 -6.113689 -2.007406 -20.286133 -2.753860 -84.149574 -27.060408 16.351591 121.648796 -0.517373 6.443703 -24.018511 7.394893 2.941238 
36.693916 27.779848 33.091019 -14.918799 8.547545 19.531305 63.446358 3.592967 -17.148020 -6.165306 7.577605 -4.651194 7.358107 -11.359169 -25.507830 -7.960358 46.463428 -56.537243 1.452834 -1.250150 0.768655 -15.531813 -34.612690 -3.441889 -89.453827 1.905728 27.793629 6.992188 16.005859 -32.897694 -6.408587 0.914528 1.823621 67.808884 16.419600 -10.360326 95.085083 -6.079821 36.393574 -7.001954 -15.996095 32.441402 -83.210434 24.970530 -20.006405 92.079315 -2.100206 -6.207342 -1.604586 -21.632704 -2.814710 -83.043839 -25.497553 15.054622 121.041893 -0.448886 6.448617 -24.677637 6.549263 2.558996 
36.767899 27.681101 33.122120 -14.670303 7.396500 18.924294 63.004436 3.736550 -16.295527 -6.557442 7.360017 -4.507483 7.317468 -11.302166 -25.539955 -8.137769 46.640766 -56.784058 1.452834 -1.250150 0.768655 -16.063232 -34.565636 -2.665764 -89.592789 1.669828 28.118979 6.992188 16.005859 -32.702381 -6.408587 0.914528 1.823621 67.766388 17.314621 -8.596133 94.523720 -5.728884 36.037762 -7.001954 -15.996095 33.554688 -85.316116 25.995663 -20.932022 94.601669 -1.885556 -6.276323 -0.585352 -22.554163 -2.558913 -83.055305 -24.374786 14.190698 120.748566 -0.429301 6.457830 -24.925211 5.699140 2.157925 
36.929153 27.837223 33.200031 -14.832369 8.232702 18.960457 63.249130 3.534128 -17.167610 -6.841544 7.348545 -4.700797 7.394670 -11.279418 -25.468191 -8.321025 46.531727 -56.687813 1.452834 -1.250150 0.768655 -16.743155 -34.313923 -1.677700 -89.708862 1.455550 28.453291 6.992188 16.005859 -32.301991 -6.408587 0.914528 1.823621 67.365120 18.090805 -6.631485 93.966240 -5.354670 35.664841 -7.001954 -15.996095 34.902344 -83.781693 25.682932 -19.542168 97.231079 -1.681510 -6.348819 -1.100759 -23.259296 -2.884611 -83.148659 -25.048025 15.756228 120.504059 -0.409649 6.464368 -24.495392 7.934138 3.218309 
37.087090 27.918756 33.228718 -14.804710 8.572888 18.718508 63.440723 3.326316 -17.604666 -7.155787 7.378347 -4.792984 7.140739 -11.227171 -25.358122 -8.191818 46.380981 -56.449284 1.452834 -1.250150 0.768655 -17.344091 -34.110718 -0.866124 -89.799103 1.283200 28.786720 6.992188 16.005859 -31.891836 -6.408587 0.914528 1.823621 66.999947 19.285318 -4.803097 93.389999 -4.936847 35.254330 -7.001954 -15.996095 36.181644 -83.143486 25.828922 -18.582172 100.075104 -1.423137 -6.399919 -1.937618 -24.161373 -3.375104 -83.969749 -25.067776 17.030132 120.611977 -0.437640 6.459599 -23.164732 9.399457 3.836880 
37.238678 27.908792 33.235062 -14.352975 8.056891 18.141207 63.144382 3.270511 -17.270693 -7.429308 7.166269 -4.727601 6.558161 -10.992102 -25.442160 -7.951249 46.255348 -56.683540 1.452834 -1.250150 0.768655 -17.687881 -34.219181 -0.189251 -89.856735 1.172925 29.051205 6.992188 16.005859 -31.676992 -6.408587 0.914528 1.823621 66.877144 20.617695 -3.145440 92.869797 -4.518912 34.859447 -7.001954 -15.996095 37.138672 -84.125237 26.688768 -18.437952 103.055725 -1.164274 -6.461124 -2.407725 -25.046329 -3.705355 -85.129021 -24.335144 17.417274 120.846397 -0.439121 6.455576 -22.003586 9.185358 3.660352 
37.370041 27.910604 33.262238 -14.200961 7.342719 17.541933 62.984028 3.391936 -16.747749 -7.762705 7.068492 -4.656249 6.322868 -11.121405 -25.625566 -8.056069 46.520088 -57.261471 1.452834 -1.250150 0.768655 -18.209049 -34.259781 0.733335 -89.898376 1.098827 29.286024 6.992188 16.005859 -31.520742 -6.408587 0.914528 1.823621 66.319855 21.669983 -1.287968 92.287292 -4.002895 34.367584 -7.001954 -15.996095 37.871094 -85.050331 27.869970 -18.569590 105.889397 -0.910897 -6.476871 -2.838261 -25.521517 -3.969855 -86.033669 -23.437382 17.546167 121.228249 -0.496386 6.434288 -20.759436 9.727923 3.790043 
37.482075 27.938387 33.294849 -14.349517 6.800194 16.784365 63.065773 3.326588 -16.180885 -7.989419 7.081398 -4.530715 6.445913 -11.505424 -25.767370 -8.818039 46.974659 -57.965843 1.452834 -1.250150 0.768655 -18.848436 -34.261597 1.857794 -89.935204 1.042911 29.511065 6.992188 16.005859 -31.520742 -6.408587 0.914528 1.823621 65.748627 22.683744 0.370960 91.716507 -3.433154 33.821110 -7.001954 -15.996095 38.349609 -85.489082 29.285713 -18.569979 108.479034 -0.686523 -6.509046 -4.360307 -25.096294 -4.489663 -87.173126 -22.236057 18.163025 121.873718 -0.537030 6.426434 -18.677750 11.284151 4.206706 
37.576591 27.944124 33.367325 -14.350410 6.778033 16.416079 63.206810 3.090049 -16.158848 -8.325863 7.294168 -4.522370 6.501874 -11.678358 -25.848316 -9.394028 47.035076 -58.392189 1.452834 -1.250150 0.768655 -19.341089 -34.057858 3.043830 -89.973770 1.005517 29.784874 6.992188 16.005859 -31.608637 -6.408587 0.914528 1.823621 65.544624 23.541943 1.925101 91.319923 -2.982981 33.384407 -7.001954 -15.996095 38.681641 -85.258316 30.057655 -18.081760 110.687729 -0.482788 -6.514244 -7.423970 -23.952271 -5.427640 -87.564903 -21.972509 18.609472 121.922485 -0.527212 6.441088 -17.821472 11.081476 4.019816 
37.649372 27.995764 33.417759 -13.983903 6.357227 16.154234 62.974789 3.023487 -16.131269 -8.771807 7.594321 -4.560013 6.589778 -11.752126 -25.967562 -9.656552 46.942085 -58.741798 1.452834 -1.250150 0.768655 -19.815117 -33.561062 4.157037 -90.010017 0.996043 30.068439 6.992188 16.005859 -31.725819 -6.408587 0.914528 1.823621 65.216377 24.135096 3.954797 91.005005 -2.585075 32.971935 -7.001954 -15.996095 39.140625 -85.409111 30.712683 -18.006130 112.388313 -0.336396 -6.521155 -10.085114 -22.891575 -6.116004 -88.985359 -21.064276 19.248913 122.255112 -0.556605 6.429304 -16.219227 11.723152 4.051405 
37.705536 28.064310 33.484795 -13.476591 5.022279 15.799603 62.299652 3.402260 -15.385297 -8.782264 7.593332 -4.453441 6.654890 -11.593846 -26.035980 -10.354140 46.751076 -59.211292 1.452834 -1.250150 0.768655 -19.953207 -33.453999 4.998125 -90.033943 1.005287 30.254126 6.992188 16.005859 -31.882072 -6.408587 0.914528 1.823621 65.025871 24.805962 5.933681 90.728607 -2.196836 32.543411 -7.001954 -15.996095 39.453125 -86.868011 31.746780 -19.146736 113.649147 -0.219241 -6.508220 -11.528708 -22.730217 -6.573980 -89.865608 -19.462881 18.744816 122.343849 -0.592886 6.424700 -15.585921 11.348836 3.806730 
37.741776 28.131653 33.572674 -13.148133 4.598174 15.785351 62.092381 3.376012 -15.307569 -8.745641 7.802350 -4.446852 6.538178 -11.234571 -26.133509 -10.689417 46.330997 -59.579639 1.452834 -1.250150 0.768655 -19.824951 -33.561092 5.885642 -90.052589 1.024041 30.391026 6.992188 16.005859 -32.253162 -6.408587 0.914528 1.823621 64.945770 25.360723 7.685397 90.502754 -1.836756 32.098064 -7.001954 -15.996095 39.277348 -86.775726 31.816120 -19.311369 114.323807 -0.150873 -6.516229 -13.858650 -22.511471 -7.306700 -90.437759 -19.013687 18.761595 122.285347 -0.598346 6.428838 -15.537924 10.590485 3.569751 
37.822403 28.073671 33.639107 -12.380262 4.666086 15.783143 61.533981 3.028200 -15.668599 -8.936792 8.127372 -4.514248 6.338986 -11.196550 -26.425125 -10.294526 46.436638 -60.120426 1.452834 -1.250150 0.768655 -19.962719 -33.541912 6.795085 -90.075623 1.051973 30.537666 6.992188 16.005859 -32.907463 -6.408587 0.914528 1.823621 64.502998 25.805368 9.585135 90.311729 -1.501185 31.595901 -7.001954 -15.996095 39.179688 -86.290482 31.326611 -18.696161 114.597504 -0.131390 -6.518950 -17.390467 -21.459772 -8.058707 -92.259521 -19.062620 19.641815 122.305038 -0.598252 6.447152 -15.529707 10.092124 3.410320 
37.849579 28.055252 33.719734 -11.892995 4.184281 15.754890 61.202236 3.014310 -15.806909 -9.028749 8.380241 -4.580273 6.126380 -11.290978 -26.529758 -10.203436 46.990513 -60.531445 1.452834 -1.250150 0.768655 -20.052238 -33.268700 7.215817 -90.108566 1.107976 30.743217 6.992188 16.005859 -33.200428 -6.408587 0.914528 1.823621 64.088684 26.453442 11.802361 90.170494 -1.228461 31.066395 -7.001954 -15.996095 39.492188 -85.796074 31.063618 -18.828888 114.069527 -0.189121 -6.521773 -21.246576 -20.163237 -8.643578 -93.049454 -18.525612 19.650482 122.030945 -0.578711 6.429542 -15.761133 9.091559 3.091433 
37.841724 28.077900 33.806103 -11.612125 3.736734 15.730644 61.125343 2.909631 -15.972308 -9.110795 8.606387 -4.623397 6.214631 -11.255005 -26.567362 -10.638752 47.644760 -61.051884 1.452834 -1.250150 0.768655 -19.591301 -32.925705 7.768283 -90.140297 1.163448 30.919321 6.992188 16.005859 -32.936760 -6.408587 0.914528 1.823621 63.961464 26.933184 13.968500 90.086014 -1.080567 30.606318 -7.001954 -15.996095 39.589840 -84.815163 30.691828 -19.049496 113.092133 -0.268110 -6.524184 -24.898993 -18.474161 -8.746208 -93.259918 -17.841866 19.539665 121.600700 -0.557561 6.431995 -15.646165 7.675446 2.642210 
37.852901 28.128935 33.880085 -11.209026 3.596043 15.722489 60.981655 2.591713 -16.224630 -9.251974 8.810099 -4.656299 6.517268 -11.338181 -26.750164 -10.948176 48.351765 -61.747814 1.452834 -1.250150 0.768655 -18.893282 -32.884758 8.508614 -90.153961 1.191265 30.978008 6.992188 16.005859 -33.024651 -6.408587 0.914528 1.823621 63.868172 27.341822 15.844227 90.024063 -1.015340 30.176086 -7.001954 -15.996095 39.521484 -83.974365 30.029247 -19.231836 112.358841 -0.355158 -6.520080 -27.047026 -17.027916 -8.407756 -93.527641 -17.500380 19.864985 121.091675 -0.490549 6.459116 -16.060261 6.707944 2.362220 
37.869812 28.169096 33.989098 -10.668395 3.512510 15.652965 60.644573 2.172574 -16.550755 -9.088171 9.073564 -4.683759 6.561000 -11.490812 -26.865833 -11.131133 49.012466 -62.285172 1.452834 -1.250150 0.768655 -18.607922 -32.932785 8.886890 -90.167496 1.219018 31.046673 6.992188 16.005859 -33.923088 -6.408587 0.914528 1.823621 63.782356 28.043873 17.708771 89.966415 -1.015070 29.745872 -7.001954 -15.996095 39.824219 -83.983711 29.501854 -19.575666 112.202736 -0.346121 -6.528625 -26.844198 -17.461420 -8.622946 -93.885658 -17.119211 20.168272 120.494949 -0.441475 6.466531 -16.870663 5.656332 2.071630 
37.890045 28.149771 34.140694 -10.312629 3.235000 15.627101 60.419956 1.969382 -16.634575 -8.992835 9.286611 -4.677445 6.735653 -11.479805 -26.998005 -11.897146 49.565224 -63.153950 1.452834 -1.250150 0.768655 -18.469744 -33.059349 9.412989 -90.182755 1.246442 31.115118 6.992188 16.005859 -34.655506 -6.408587 0.914528 1.823621 63.733253 28.380659 19.563848 89.917862 -1.071074 29.413370 -7.001954 -15.996095 40.439457 -84.557701 29.218374 -20.170763 112.359024 -0.336403 -6.521571 -26.275108 -17.945797 -8.771219 -93.861183 -16.650805 20.102339 119.819962 -0.384068 6.481857 -17.715919 3.952860 1.526453 
